HIERARCHY
ROOT hip
{
  OFFSET 0 0 0
  CHANNELS 6 Xposition Yposition Zposition Zrotation Yrotation Xrotation
  JOINT abdomen
  {
    OFFSET 0 20.6881 -0.73152
    CHANNELS 3 Zrotation Xrotation Yrotation
    JOINT chest
    {
      OFFSET 0 11.7043 -0.48768
      CHANNELS 3 Zrotation Xrotation Yrotation
      JOINT neck
      {
        OFFSET 0 22.1894 -2.19456
        CHANNELS 3 Zrotation Xrotation Yrotation
        JOINT head
        {
          OFFSET -0.24384 7.07133 1.2192
          CHANNELS 3 Zrotation Xrotation Yrotation
          JOINT leftEye
          {
            OFFSET 4.14528 8.04674 8.04672
            CHANNELS 3 Zrotation Xrotation Yrotation
            End Site
            {
              OFFSET 1 0 0
            }
          }
          JOINT rightEye
          {
            OFFSET -3.6576 8.04674 8.04672
            CHANNELS 3 Zrotation Xrotation Yrotation
            End Site
            {
              OFFSET 1 0 0
            }
          }
        }
      }
      JOINT rCollar
      {
        OFFSET -2.68224 19.2634 -4.8768
        CHANNELS 3 Zrotation Xrotation Yrotation
        JOINT rShldr
        {
          OFFSET -8.77824 -1.95073 1.46304
          CHANNELS 3 Zrotation Xrotation Yrotation
          JOINT rForeArm
          {
            OFFSET -28.1742 -1.7115 0.48768
            CHANNELS 3 Zrotation Xrotation Yrotation
            JOINT rHand
            {
              OFFSET -22.5879 0.773209 7.07136
              CHANNELS 3 Zrotation Xrotation Yrotation
              JOINT rThumb1
              {
                OFFSET -1.2192 -0.487915 3.41376
                CHANNELS 3 Zrotation Xrotation Yrotation
                JOINT rThumb2
                {
                  OFFSET -3.37035 -0.52449 3.41376
                  CHANNELS 3 Zrotation Xrotation Yrotation
                  End Site
                  {
                    OFFSET -1.78271 -1.18214 1.43049
                  }
                }
              }
              JOINT rIndex1
              {
                OFFSET -7.75947 0.938293 5.60832
                CHANNELS 3 Zrotation Xrotation Yrotation
                JOINT rIndex2
                {
                  OFFSET -2.54057 -0.884171 1.56538
                  CHANNELS 3 Zrotation Xrotation Yrotation
                  End Site
                  {
                    OFFSET -1.62519 -0.234802 1.16502
                  }
                }
              }
              JOINT rMid1
              {
                OFFSET -8.24714 1.18213 3.41376
                CHANNELS 3 Zrotation Xrotation Yrotation
                JOINT rMid2
                {
                  OFFSET -3.10165 -0.590103 1.0647
                  CHANNELS 3 Zrotation Xrotation Yrotation
                  End Site
                  {
                    OFFSET -2.48547 -0.328903 0.83742
                  }
                }
              }
              JOINT rRing1
              {
                OFFSET -8.82822 0.546677 1.51678
                CHANNELS 3 Zrotation Xrotation Yrotation
                JOINT rRing2
                {
                  OFFSET -2.60934 -0.819778 -0.0198488
                  CHANNELS 3 Zrotation Xrotation Yrotation
                  End Site
                  {
                    OFFSET -2.33842 -0.294052 0.168128
                  }
                }
              }
              JOINT rPinky1
              {
                OFFSET -8.27202 -0.0477905 -0.4584
                CHANNELS 3 Zrotation Xrotation Yrotation
                JOINT rPinky2
                {
                  OFFSET -1.82734 -0.647385 -0.700984
                  CHANNELS 3 Zrotation Xrotation Yrotation
                  End Site
                  {
                    OFFSET -1.69225 -0.51767 -0.607171
                  }
                }
              }
            }
          }
        }
      }
      JOINT lCollar
      {
        OFFSET 2.68224 19.2634 -4.8768
        CHANNELS 3 Zrotation Xrotation Yrotation
        JOINT lShldr
        {
          OFFSET 8.77824 -1.95073 1.46304
          CHANNELS 3 Zrotation Xrotation Yrotation
          JOINT lForeArm
          {
            OFFSET 28.1742 -1.7115 0.48768
            CHANNELS 3 Zrotation Xrotation Yrotation
            JOINT lHand
            {
              OFFSET 22.5879 0.773209 7.07136
              CHANNELS 3 Zrotation Xrotation Yrotation
              JOINT lThumb1
              {
                OFFSET 1.2192 -0.487915 3.41376
                CHANNELS 3 Zrotation Xrotation Yrotation
                JOINT lThumb2
                {
                  OFFSET 3.37035 -0.52449 3.41376
                  CHANNELS 3 Zrotation Xrotation Yrotation
                  End Site
                  {
                    OFFSET 1.78271 -1.18214 1.43049
                  }
                }
              }
              JOINT lIndex1
              {
                OFFSET 7.75947 0.938293 5.60832
                CHANNELS 3 Zrotation Xrotation Yrotation
                JOINT lIndex2
                {
                  OFFSET 2.54057 -0.884171 1.56538
                  CHANNELS 3 Zrotation Xrotation Yrotation
                  End Site
                  {
                    OFFSET 1.62519 -0.234802 1.16502
                  }
                }
              }
              JOINT lMid1
              {
                OFFSET 8.24714 1.18213 3.41376
                CHANNELS 3 Zrotation Xrotation Yrotation
                JOINT lMid2
                {
                  OFFSET 3.10165 -0.590103 1.0647
                  CHANNELS 3 Zrotation Xrotation Yrotation
                  End Site
                  {
                    OFFSET 2.48547 -0.328903 0.83742
                  }
                }
              }
              JOINT lRing1
              {
                OFFSET 8.82822 0.546677 1.51678
                CHANNELS 3 Zrotation Xrotation Yrotation
                JOINT lRing2
                {
                  OFFSET 2.60934 -0.819778 -0.0198488
                  CHANNELS 3 Zrotation Xrotation Yrotation
                  End Site
                  {
                    OFFSET 2.33842 -0.294052 0.168128
                  }
                }
              }
              JOINT lPinky1
              {
                OFFSET 8.27202 -0.0477905 -0.4584
                CHANNELS 3 Zrotation Xrotation Yrotation
                JOINT lPinky2
                {
                  OFFSET 1.82734 -0.647385 -0.700984
                  CHANNELS 3 Zrotation Xrotation Yrotation
                  End Site
                  {
                    OFFSET 1.69225 -0.51767 -0.607171
                  }
                }
              }
            }
          }
        }
      }
    }
  }
  JOINT rButtock
  {
    OFFSET -8.77824 4.35084 1.2192
    CHANNELS 3 Zrotation Xrotation Yrotation
    JOINT rThigh
    {
      OFFSET 0 -1.70687 -2.19456
      CHANNELS 3 Zrotation Xrotation Yrotation
      JOINT rShin
      {
        OFFSET 0 -36.8199 0.73152
        CHANNELS 3 Zrotation Xrotation Yrotation
        JOINT rFoot
        {
          OFFSET 0.73152 -45.1104 -5.12064
          CHANNELS 3 Zrotation Xrotation Yrotation
          End Site
          {
            OFFSET -1.1221 -3.69964 12.103
          }
        }
      }
    }
  }
  JOINT lButtock
  {
    OFFSET 8.77824 4.35084 1.2192
    CHANNELS 3 Zrotation Xrotation Yrotation
    JOINT lThigh
    {
      OFFSET 0 -1.70687 -2.19456
      CHANNELS 3 Zrotation Xrotation Yrotation
      JOINT lShin
      {
        OFFSET 0 -36.8199 0.73152
        CHANNELS 3 Zrotation Xrotation Yrotation
        JOINT lFoot
        {
          OFFSET -0.73152 -45.1104 -5.12064
          CHANNELS 3 Zrotation Xrotation Yrotation
          End Site
          {
            OFFSET 1.1221 -3.69964 12.103
          }
        }
      }
    }
  }
}
MOTION
Frames:	4
Frame Time:	0.03333
-96.40950000000001 2.6322 127.3372 59.075294 52.615923 138.601594 -151.474139 -9.969156 101.149771 -164.208085 39.491827 -107.291572 54.236945 -62.170696 -118.892476 123.45637 9.963729 -13.795354 -173.203816 1.326803 22.069236 -61.032927 -20.468869 34.060694 -95.760174 -11.358827 115.508168 -76.117082 15.554269 16.741542 -56.032949 40.137547 -88.641141 -105.563975 40.374624 -12.779804 1.744843 50.921236 61.554104 99.805555 -9.988232 -27.248885 59.327456 -6.04172 -151.91932 133.462665 75.694424 -8.643966 -44.748817 51.739888 25.22535 -170.34438 51.462682 -14.498394 -80.812695 13.862635 -158.897045 -122.957089 12.504534 22.110256 -104.353852 -47.450458 15.473665 62.847717 -31.664153 -22.190727 174.532206 -16.026929 33.544724 127.100573 -9.70988 22.02778 -178.365608 -7.091869 -52.237535 -30.64663 -36.436248 123.263578 -169.196032 3.404049 90.994088 32.019041 33.829097 139.680149 165.076441 1.752438 -169.159423 -19.191085 0.869368 -148.146265 -165.949329 24.150761 -12.733358 -101.492086 64.025905 16.385829 97.581803 -3.775824 -14.239395 91.101512 50.487074 -87.283445 -119.973797 -40.179617 -10.72636 -125.019459 21.405648 -71.971888 -23.456082 -0.49744 -88.85373 -156.792146 -37.114786 14.882373 101.519117 -28.257928 -132.073093 155.394682 -22.955144 135.889717 -72.342565 2.590802 89.175628 -36.181727 -3.728485 89.041183 -148.355019 -0.592371 -90.219571 -41.060356 44.313316 148.486387
-98.2669 2.6196 129.8887 59.035281 52.373409 138.656989 -151.562951 -9.67624 101.703273 -164.40557 39.291519 -106.873421 47.3662 -68.236097 -89.282696 117.751081 -21.487344 2.196108 -172.373545 1.47005 21.790378 -61.161414 -20.375266 33.828947 -58.721921 11.564609 105.172721 137.189047 11.873967 115.520942 -65.04469 -3.639291 168.121543 -138.925125 19.017647 26.432205 -98.056608 -49.385546 93.57702 -126.383527 -1.735175 -31.5903 -3.588445 38.338752 -156.498303 -102.295828 42.972767 -141.707476 -170.673064 0.927743 144.343794 7.8557 37.523414 -164.848023 -72.34009 -4.644081 -152.738833 80.897811 2.232782 169.985048 115.028764 18.084139 -176.676375 136.042795 37.408038 -161.847169 -53.211877 -32.843315 158.028161 -86.148219 48.787389 -94.784161 178.838908 19.465137 88.732505 -173.987934 38.859071 -11.419095 9.773446 12.187996 179.859579 -34.861329 -8.291493 -158.507028 18.31043 3.745 51.890579 -6.799212 26.238303 156.191976 -23.136723 6.892306 -135.480004 65.271893 -47.169201 -37.745519 159.271405 56.489065 -79.929655 -166.359872 25.742888 174.102696 -121.570088 3.59067 -27.247039 89.809592 -52.523232 -100.43603 80.345176 0.193273 89.805855 144.555158 -56.858449 -31.17721 -96.993693 35.12896 105.130413 69.61235 35.207459 125.431498 -177.117451 3.589398 -89.829975 118.890693 54.53373 55.209872 -179.556085 -31.32938 136.59036 -122.076854 9.1109 174.045508
-100.1317 2.6224999999999996 132.435 58.924152 52.630604 138.669241 -149.273101 -11.668885 180.0 143.857077 20.914545 -15.146422 80.581121 -58.244864 176.744474 -156.704835 49.98179 -111.369438 -172.18679 1.513654 21.89627 -61.259748 -20.238204 33.54765 -87.568246 -5.032237 114.211922 -126.091122 55.12564 59.110533 4.547864 -14.424057 -129.263518 -58.925843 31.802002 -65.903335 -34.315996 35.418486 90.226553 98.749452 21.507132 17.341403 -21.869915 46.36414 -148.731872 171.166081 19.651953 -101.035941 -2.895855 -35.294146 -5.547438 179.631242 56.800574 -29.959208 -76.771664 4.057452 -155.384811 -120.287959 19.223013 13.572344 168.870711 -81.892595 -82.486923 160.789423 34.148403 -52.240967 142.470169 68.854724 27.615464 -116.968278 -27.753285 69.39571 94.787788 16.648122 111.189027 4.66292 60.941579 146.35911 -4.863062 -1.52928 178.842735 -88.240322 -49.190025 148.414655 149.430943 -27.637165 177.175372 -48.873082 83.282138 -124.731113 -68.022016 50.479858 -98.81462 -16.042745 12.524452 -97.829921 -118.640215 -5.45557 -164.883678 -154.410408 64.252757 117.723161 -68.54833 66.015353 -91.784102 -28.411342 -70.023883 -166.677377 28.342786 -51.820969 -0.267544 168.157346 -33.624337 180.0 -110.780706 -49.140901 -9.015886 156.469891 -27.73654 112.724241 -177.01206 3.620432 -89.246766 121.974593 52.395996 -116.315274 -177.857495 43.857224 125.40501 80.057676 9.881528 -10.452887
-102.00720000000001 2.6362 134.9487 58.781025 53.105625 138.63107 -149.290887 -7.260643 0.0 -144.07301 -16.639249 162.49704 57.612992 -75.918996 -27.097613 142.978612 -65.358417 48.670574 -172.668703 1.447432 22.308196 -61.27879 -20.150167 33.39502 -60.047663 10.23508 105.972803 -102.589303 14.232028 62.313022 -171.420761 -30.201523 -82.249868 -151.440695 -54.459555 76.891097 -16.886775 46.41021 76.382046 -27.463782 -53.379628 138.831895 157.414312 -9.610153 -94.853968 -166.712147 69.574485 1.527607 -13.842767 -0.278984 -1.082515 174.13694 2.817174 -22.138389 -77.690513 4.625397 -155.344038 67.200337 -45.685766 161.099771 116.683337 21.332849 -178.595423 153.695172 66.696921 173.985265 -36.524091 7.290709 172.158316 157.692973 -68.955015 -48.555113 147.193201 75.008541 -25.466324 -23.400261 -26.12363 130.018552 -172.365312 5.642805 91.212087 31.422879 32.36324 140.901059 170.353221 18.225104 -164.840223 176.429859 80.535506 35.297071 146.693705 -58.830029 -14.880987 13.25065 8.775937 100.010999 -119.553894 -6.514411 -164.928155 4.516461 -39.680095 54.970961 -122.229627 -2.349008 -23.989628 -135.539057 15.693968 -87.984297 29.235211 52.706128 -180.0 -153.507586 -68.207617 25.025713 -115.224773 -42.859989 -134.590658 56.49412 -38.155687 45.533507 -72.043126 3.736605 88.79005 -36.750693 -5.705141 180.0 177.876295 33.680418 -27.796929 -72.181537 21.09829 175.976834
